<?xml version="1.0" standalone="no"?>
<!DOCTYPE svg PUBLIC "-//W3C//DTD SVG 20010904//EN"
 "http://www.w3.org/TR/2001/REC-SVG-20010904/DTD/svg10.dtd">
<svg version="1.0" xmlns="http://www.w3.org/2000/svg"
 width="900.000000pt" height="900.000000pt" viewBox="0 0 900.000000 900.000000"
 preserveAspectRatio="xMidYMid meet">
<metadata>
Created by potrace 1.16, written by Peter Selinger 2001-2019
</metadata>
<g transform="translate(0.000000,900.000000) scale(0.100000,-0.100000)"
fill="#000000" stroke="none">
<path d="M4855 6728 c-5 -14 -47 -227 -145 -728 -111 -568 -138 -695 -143
-680 -3 8 -13 42 -22 75 -35 127 -126 276 -233 382 -121 119 -320 221 -505
259 -75 15 -236 25 -317 19 -431 -31 -833 -247 -1112 -596 -62 -78 -141 -211
-183 -309 -32 -76 -78 -225 -78 -258 0 -7 -23 9 -51 36 -111 107 -262 170
-621 257 -245 60 -318 83 -382 120 -116 69 -80 191 67 224 25 6 84 11 131 11
173 0 279 -60 279 -160 l0 -30 375 0 375 0 0 68 c-1 248 -145 446 -400 549
-139 57 -275 78 -495 78 -574 0 -989 -211 -1133 -575 -32 -83 -55 -224 -47
-294 23 -205 184 -359 471 -449 43 -14 168 -46 278 -72 404 -95 483 -139 446
-249 -21 -64 -87 -105 -211 -132 -62 -13 -215 -7 -273 12 -82 26 -143 83 -160
149 l-12 50 -375 0 -374 0 -3 -83 c-7 -215 127 -409 363 -527 164 -81 325
-113 570 -113 377 0 681 79 912 236 119 81 239 222 288 337 l16 40 35 -74
c103 -222 311 -402 561 -485 183 -61 444 -71 653 -27 387 83 750 330 972 660
27 41 47 64 44 50 -3 -13 -24 -118 -46 -234 -23 -115 -50 -253 -60 -305 -11
-52 -20 -99 -20 -106 0 -8 104 -10 408 -6 224 2 408 5 410 7 2 2 69 339 101
515 34 180 31 174 50 100 92 -347 381 -602 765 -675 118 -23 344 -21 473 4
465 90 881 400 1088 812 57 111 104 266 122 396 13 99 14 134 4 218 -50 438
-343 741 -801 831 -109 21 -340 17 -466 -8 -428 -84 -804 -346 -1041 -724 -11
-18 -11 -18 -8 1 3 11 18 94 35 185 29 155 74 387 105 545 8 39 16 84 19 100
3 17 10 53 15 80 6 28 28 144 51 260 22 115 43 218 46 227 5 17 -17 18 -401
18 -315 0 -407 -3 -410 -12z m1840 -1329 c170 -46 275 -190 276 -375 1 -283
-223 -532 -525 -585 -166 -29 -345 52 -420 190 -119 219 -17 522 231 687 131
87 302 119 438 83z m-3126 -18 c195 -61 305 -241 271 -443 -38 -224 -201 -415
-418 -490 -54 -19 -88 -23 -177 -23 -107 0 -112 1 -187 38 -86 42 -133 89
-175 177 -35 73 -44 217 -18 306 36 123 104 228 201 308 153 126 347 176 503
127z"/>
<path d="M8360 3514 c-68 -21 -163 -77 -211 -124 -37 -36 -91 -130 -109 -189
-32 -103 -24 -236 20 -323 7 -13 -42 31 -108 96 l-121 120 42 49 c23 27 65 77
93 112 28 34 83 101 123 148 39 47 71 88 71 91 0 3 -86 6 -191 6 -139 0 -194
-3 -202 -12 -7 -7 -25 -31 -41 -53 -17 -22 -33 -42 -36 -45 -4 -3 -25 -30 -47
-60 -22 -30 -52 -68 -67 -85 l-26 -30 0 143 0 142 -165 0 -165 0 0 -440 0
-440 165 0 164 0 3 147 3 146 75 -69 c41 -38 112 -104 157 -146 l84 -78 192 0
c151 0 197 3 212 14 17 12 25 12 55 0 19 -8 67 -19 107 -25 231 -32 445 87
538 301 16 36 20 67 20 160 0 114 -1 117 -37 191 -67 134 -157 208 -308 255
-57 18 -230 17 -290 -2z m211 -264 c48 -14 116 -86 125 -135 10 -55 -1 -112
-31 -155 -37 -54 -68 -71 -135 -77 -217 -20 -293 268 -95 358 45 21 84 23 136
9z"/>
<path d="M5592 3418 c-35 -72 -95 -201 -217 -463 -18 -38 -60 -128 -94 -199
-34 -70 -61 -130 -61 -132 0 -3 82 -3 183 -2 l182 3 20 52 20 53 201 0 202 0
22 -55 22 -55 529 0 529 0 0 125 0 125 -230 0 -230 0 0 315 0 315 -165 0 -165
0 -1 -337 c0 -186 -3 -331 -6 -323 -6 16 -96 209 -276 592 l-32 68 -196 0
-197 0 -40 -82z m263 -285 c10 -26 28 -71 41 -98 36 -80 40 -76 -72 -78 -87
-2 -100 0 -93 13 5 8 17 35 27 60 52 125 68 158 73 154 3 -2 14 -25 24 -51z"/>
<path d="M3450 3076 c0 -228 3 -421 6 -430 5 -13 25 -16 110 -16 l104 0 0 45
0 46 30 -35 c47 -53 83 -61 265 -60 145 0 165 2 213 23 101 45 125 100 125
291 0 148 -12 198 -58 244 -54 54 -117 70 -280 70 -161 1 -199 -8 -250 -61
l-35 -36 0 166 0 167 -115 0 -115 0 0 -414z m574 -10 c42 -17 50 -40 48 -133
-1 -121 -20 -135 -182 -136 -170 -1 -210 25 -210 135 0 74 17 118 53 133 44
20 246 20 291 1z"/>
<path d="M4310 3237 c0 -2 60 -138 134 -302 l134 -300 41 -3 c46 -4 46 -3 27
-40 -24 -46 -48 -61 -106 -64 l-55 -3 -3 -77 -3 -77 37 -7 c52 -10 161 4 211
26 28 12 51 32 65 57 13 21 103 207 200 413 l177 375 -117 3 c-64 1 -121 1
-127 -2 -7 -2 -52 -97 -100 -210 -49 -113 -92 -206 -96 -206 -3 0 -30 62 -59
138 -29 75 -66 170 -83 210 l-30 72 -123 0 c-68 0 -124 -1 -124 -3z"/>
<path d="M6780 3075 l0 -95 175 0 175 0 0 95 0 95 -175 0 -175 0 0 -95z"/>
</g>
</svg>
