<?xml version="1.0" encoding="UTF-8"?><svg id="Layer_2" xmlns="http://www.w3.org/2000/svg" width="318.67" height="380.33" viewBox="0 0 318.67 380.33"><defs><style>.cls-1{fill:#000000;stroke-width:0px;}</style></defs><g id="Layer_2-2"><g id="Layer_1_copy"><path class="cls-1" d="M0,296.13l9.06-5.46h2.06v18.54h13.08v8.96h-13.08v21.22c0,5.97,1.75,7.93,6.69,7.93,1.75,0,3.4-.41,5.36-1.24l.82.41.41,9.06c-2.57,1.03-5.97,1.65-9.37,1.65-9.68,0-15.04-5.15-15.04-14.83v-46.25Z"/><path class="cls-1" d="M23.72,377.7l1.13-9.06.82-.41c1.13.41,2.78.72,3.81.72,4.53,0,6.18-2.37,6.18-9.68v-50.06h11.23v50.98c0,12.98-5.36,18.75-15.96,18.75-2.47,0-5.25-.52-7.21-1.24ZM34.02,288.61c0-3.91,3.09-6.9,7.31-6.9s7.31,2.99,7.31,7-3.09,6.9-7.31,6.9-7.31-2.88-7.31-7Z"/><path class="cls-1" d="M55.53,332.18c0-14.11,10.92-24.92,25.75-24.92s25.65,10.81,25.65,24.92-11.02,25.03-25.65,25.03-25.75-10.92-25.75-25.03ZM95.6,332.18c0-8.45-6.08-15.04-14.32-15.04s-14.32,6.59-14.32,15.04,6.18,15.14,14.32,15.14,14.32-6.59,14.32-15.14Z"/><path class="cls-1" d="M106.17,332.18c0-14.11,10.92-24.92,25.75-24.92s25.65,10.81,25.65,24.92-11.02,25.03-25.65,25.03-25.75-10.92-25.75-25.03ZM146.23,332.18c0-8.45-6.08-15.04-14.32-15.04s-14.32,6.59-14.32,15.04,6.18,15.14,14.32,15.14,14.32-6.59,14.32-15.14Z"/><path class="cls-1" d="M156.81,332.18c0-14.11,10.92-24.92,25.75-24.92s25.65,10.81,25.65,24.92-11.02,25.03-25.65,25.03-25.75-10.92-25.75-25.03ZM196.87,332.18c0-8.45-6.08-15.04-14.32-15.04s-14.32,6.59-14.32,15.04,6.18,15.14,14.32,15.14,14.32-6.59,14.32-15.14Z"/><path class="cls-1" d="M212.9,318.38v-9.17h42.02v1.03l-25.34,35.74h25.13v9.27h-42.74v-1.03l25.13-35.84h-24.2Z"/><path class="cls-1" d="M270.81,334.14v.51c0,8.45,5.67,13.6,13.18,13.6,5.25,0,8.96-2.47,12.05-7.42l.93-.21,8.55,4.12c-4.43,8.03-11.95,12.46-21.84,12.46-14.83,0-24.51-10.3-24.51-24.93s9.89-25.03,24.1-25.03,23.28,9.37,23.28,24.92c0,.62,0,1.03-.1,1.96h-35.64ZM271.02,327.24h24c-.41-7.11-4.94-11.33-11.74-11.33s-11.23,4.22-12.26,11.33Z"/><path class="cls-1" d="M298.55,294.91c0-5.56,4.5-10.01,10.06-10.01s10.06,4.46,10.06,10.01-4.5,9.92-10.06,9.92-10.06-4.37-10.06-9.92ZM316.95,294.91c0-4.59-3.7-8.34-8.34-8.34s-8.34,3.75-8.34,8.34,3.71,8.34,8.34,8.34,8.34-3.79,8.34-8.34ZM310.6,295.71l3.04,4.32-.09.22h-2.38l-2.82-4.19h-1.11v4.19h-2.21v-10.72h3.66c2.51,0,3.88,1.06,3.88,3.31,0,1.41-.71,2.38-1.99,2.87ZM308.43,294.25c1.33,0,1.94-.4,1.94-1.45s-.61-1.46-1.94-1.46h-1.15v2.91h1.15Z"/><path class="cls-1" d="M213.72,376.47v-4.02l-3.49-5.9h1.86l1.36,2.54c.35.69.71,1.33,1.06,1.99h.04c.35-.66.71-1.3,1.05-1.97l1.36-2.55h1.86l-3.49,5.9v4.02h-1.62Z"/><path class="cls-1" d="M219.04,371.51c0-2.97,2.21-5.22,5.34-5.22s5.32,2.25,5.32,5.22-2.24,5.22-5.32,5.22-5.34-2.27-5.34-5.22ZM227.99,371.51c0-2.12-1.5-3.71-3.61-3.71s-3.63,1.6-3.63,3.71,1.51,3.7,3.63,3.7,3.61-1.61,3.61-3.7Z"/><path class="cls-1" d="M231.47,372.5v-5.95h1.62v5.8c0,2,.74,2.86,2.42,2.86s2.44-.85,2.44-2.86v-5.8h1.62v5.94c0,2.7-1.39,4.24-4.06,4.24s-4.05-1.46-4.05-4.23Z"/><path class="cls-1" d="M249.39,376.23l-.1.24h-1.68l-2.84-4.13h-1.33v4.13h-1.64v-9.92h3.12c2.23,0,3.43.97,3.43,2.94,0,1.29-.67,2.21-1.92,2.61l2.96,4.13ZM243.44,367.92v3.08h1.23c1.43,0,2.09-.42,2.09-1.51,0-1.15-.67-1.57-2.09-1.57h-1.23Z"/><path class="cls-1" d="M254.13,371.51c0-3.04,2.24-5.22,5.18-5.22,2,0,3.56.85,4.51,2.62l-1.18.76-.25-.04c-.71-1.25-1.7-1.81-3.04-1.81-1.99,0-3.47,1.55-3.47,3.7s1.51,3.7,3.5,3.7c1.44,0,2.38-.55,3.08-1.78l.24-.06,1.16.77c-1.02,1.75-2.52,2.59-4.54,2.59-2.98,0-5.2-2.18-5.2-5.22Z"/><path class="cls-1" d="M265.05,371.51c0-2.97,2.21-5.22,5.34-5.22s5.32,2.25,5.32,5.22-2.24,5.22-5.32,5.22-5.34-2.27-5.34-5.22ZM274,371.51c0-2.12-1.5-3.71-3.61-3.71s-3.63,1.6-3.63,3.71,1.51,3.7,3.63,3.7,3.61-1.61,3.61-3.7Z"/><path class="cls-1" d="M277.55,366.55h1.62v8.43h4.54l-.18,1.49h-5.98v-9.92Z"/><path class="cls-1" d="M284.44,371.51c0-2.97,2.21-5.22,5.34-5.22s5.32,2.25,5.32,5.22-2.24,5.22-5.32,5.22-5.34-2.27-5.34-5.22ZM293.39,371.51c0-2.12-1.5-3.71-3.61-3.71s-3.63,1.6-3.63,3.71,1.51,3.7,3.63,3.7,3.61-1.61,3.61-3.7Z"/><path class="cls-1" d="M304.54,376.23l-.1.24h-1.68l-2.84-4.13h-1.33v4.13h-1.64v-9.92h3.12c2.23,0,3.43.97,3.43,2.94,0,1.29-.67,2.21-1.92,2.61l2.96,4.13ZM298.58,367.92v3.08h1.23c1.43,0,2.09-.42,2.09-1.51,0-1.15-.67-1.57-2.09-1.57h-1.23Z"/><circle class="cls-1" cx="116.34" cy="62.58" r="15.5"/><circle class="cls-1" cx="18.84" cy="109.08" r="14.48"/><circle class="cls-1" cx="153.84" cy="18.08" r="11.19"/><path class="cls-1" d="M72.11,45.07c3.86-2.84,4.69-8.27,1.85-12.13-2.84-3.86-8.27-4.69-12.13-1.85-3.86,2.84-4.69,8.27-1.85,12.13,2.84,3.86,8.27,4.69,12.13,1.85Z"/><path class="cls-1" d="M128.54,9.35c2.3-1.69,2.8-4.94,1.1-7.24-1.69-2.3-4.94-2.8-7.24-1.1-2.3,1.69-2.8,4.94-1.1,7.24s4.94,2.8,7.24,1.1Z"/><path class="cls-1" d="M24.44,63.18c2.79-2.06,3.39-5.99,1.34-8.78-2.06-2.79-5.99-3.39-8.78-1.34-2.79,2.06-3.39,5.99-1.34,8.78,2.06,2.79,5.99,3.39,8.78,1.34Z"/><path class="cls-1" d="M40.22,16.31c1.93-1.42,2.34-4.14.92-6.07s-4.14-2.34-6.07-.92c-1.93,1.42-2.34,4.14-.92,6.07,1.42,1.93,4.14,2.34,6.07.92Z"/><path class="cls-1" d="M179.46,66.15c-1.97-.42-3.41-2.15-3.41-4.16-.02-10.06-7.84-18.61-17.9-18.97-10.57-.38-19.25,8.08-19.25,18.56l-.11,3.92c-.88,11.19-10.24,20-21.66,20-5.75,0-11.04-2.2-14.93-5.85l-11-11c-10.06-10.06-26.38-9.91-35.7.83-8.21,9.47-7.82,23.81,1.18,32.81l11.62,11.62s0,.01-.01.02c3.54,3.49,5.74,8.33,5.74,13.7,0,10.46-8.36,18.95-18.75,19.2,0,.03-.01.05-.02.08h-5.56c-10.1,0-18.71,7.85-19.05,17.94-.35,10.55,8.09,19.21,18.56,19.21h1.48c2.03,0,3.79,1.44,4.16,3.44,9.7,51.94,57.87,90.35,113.81,84.53,48.46-5.04,87.21-43.53,92.54-91.96,6.08-55.25-30.99-103.04-81.75-113.92ZM160.39,234.24c-18.16,0-28.2-9.66-28.2-27.82v-86.74l17-10.24h3.86v34.77h24.53v16.81h-24.53v39.8c0,11.2,3.28,14.87,12.56,14.87,3.28,0,6.37-.77,10.05-2.32l1.54.77.77,17c-4.83,1.93-11.2,3.09-17.58,3.09Z"/></g></g></svg>