<?xml version="1.0" standalone="no"?>
<!DOCTYPE svg PUBLIC "-//W3C//DTD SVG 20010904//EN"
 "http://www.w3.org/TR/2001/REC-SVG-20010904/DTD/svg10.dtd">
<svg version="1.0" xmlns="http://www.w3.org/2000/svg"
 width="4448.000000pt" height="2390.000000pt" viewBox="0 0 4448.000000 2390.000000"
 preserveAspectRatio="xMidYMid meet">
<metadata>
Created by potrace 1.16, written by Peter Selinger 2001-2019
</metadata>
<g transform="translate(0.000000,2390.000000) scale(0.100000,-0.100000)"
fill="#000000" stroke="none">
<path d="M28394 21012 l-1520 -2 -87 -128 c-154 -225 -328 -479 -670 -977 -61
-88 -165 -239 -231 -337 -67 -97 -175 -254 -240 -350 -66 -95 -176 -256 -246
-358 -70 -102 -178 -259 -240 -350 -62 -91 -170 -248 -240 -350 -70 -102 -178
-259 -240 -350 -62 -91 -170 -248 -240 -350 -70 -102 -178 -259 -240 -350 -62
-91 -170 -248 -240 -350 -70 -102 -178 -259 -240 -350 -62 -91 -170 -248 -240
-350 -70 -102 -180 -263 -246 -358 -65 -96 -173 -253 -240 -350 -66 -98 -170
-249 -231 -337 -60 -88 -159 -232 -219 -320 -61 -88 -173 -251 -249 -363 -77
-112 -194 -283 -261 -380 -66 -97 -170 -249 -231 -337 -236 -344 -341 -497
-460 -670 -67 -99 -172 -252 -233 -340 -60 -88 -167 -244 -237 -347 -70 -102
-182 -264 -247 -360 -66 -95 -176 -256 -246 -358 -147 -214 -334 -488 -373
-544 l-27 -39 2 -3576 3 -3576 4555 -3 c4507 -4 4774 -2 5130 28 344 30 463
41 813 80 152 17 382 45 502 60 39 5 111 14 160 20 50 6 122 15 160 20 39 5
111 14 160 20 114 14 289 40 418 61 267 43 464 83 667 134 398 100 720 217
965 353 102 56 154 88 314 195 277 184 488 356 705 573 100 99 254 270 307
339 13 17 26 32 29 35 12 10 100 130 186 252 105 150 148 218 265 425 29 51
122 238 149 298 12 28 32 73 44 100 13 28 33 77 45 110 13 33 27 69 32 80 10
24 102 311 119 375 7 25 16 59 21 75 43 156 97 448 118 645 27 246 31 322 31
622 0 502 -33 794 -140 1243 -26 105 -27 109 -85 287 -81 250 -210 540 -317
717 -21 34 -38 65 -38 67 0 6 -176 268 -195 292 -8 9 -51 64 -97 122 -160 202
-415 447 -633 609 -33 25 -76 56 -95 71 -90 68 -265 177 -425 265 -193 106
-404 204 -610 284 -60 24 -119 47 -130 51 -11 4 -36 13 -55 20 -19 7 -44 16
-55 20 -69 29 -410 132 -580 175 -54 13 -103 29 -108 34 -6 6 4 16 28 25 21 9
40 16 44 16 6 0 146 54 196 75 17 8 54 23 84 35 170 66 556 262 653 331 14 11
29 19 32 19 7 0 205 131 234 155 9 8 40 30 67 51 210 155 483 428 635 634 14
18 34 45 46 59 24 30 204 298 204 305 0 2 17 33 38 67 60 98 173 332 221 454
24 61 47 119 51 130 25 59 82 247 109 360 60 249 76 338 111 651 13 116 13
695 0 805 -5 46 -15 127 -21 179 -10 90 -16 129 -40 260 -49 260 -138 560
-228 762 -12 26 -21 51 -21 54 0 9 -140 293 -178 359 -88 158 -169 281 -295
450 -50 66 -93 122 -96 125 -3 3 -31 34 -61 70 -142 169 -331 358 -500 500
-36 30 -67 58 -70 61 -36 40 -379 275 -526 360 -99 57 -378 197 -444 223 -25
10 -61 24 -80 33 -127 55 -280 110 -460 165 -113 34 -349 95 -455 117 -33 7
-78 16 -100 21 -190 40 -462 80 -670 100 -317 29 -407 34 -820 43 -49 1 -774
1 -1611 -1z m-239 -3500 c44 -6 125 -16 180 -22 55 -6 120 -15 145 -20 25 -5
74 -14 110 -21 60 -11 127 -27 205 -49 17 -5 46 -13 65 -19 31 -8 62 -19 172
-62 54 -21 201 -101 261 -141 92 -62 255 -230 326 -336 76 -113 156 -280 181
-377 5 -16 15 -55 23 -85 68 -259 68 -609 1 -925 -38 -177 -131 -393 -232
-535 -70 -100 -226 -250 -327 -317 -96 -63 -139 -85 -300 -154 -27 -11 -113
-40 -150 -49 -137 -37 -191 -49 -305 -70 -46 -9 -158 -25 -240 -35 -25 -3
-151 -12 -280 -20 -184 -11 -495 -15 -1427 -15 -655 0 -1198 3 -1207 6 -15 6
-16 158 -16 1629 0 1289 3 1624 13 1629 24 11 2719 -1 2802 -12z m435 -6541
c52 -6 138 -16 190 -22 90 -9 122 -14 273 -40 85 -14 210 -42 272 -60 54 -16
220 -70 240 -79 135 -56 198 -87 273 -132 269 -164 490 -429 613 -738 22 -57
27 -72 52 -175 75 -304 70 -633 -15 -950 -110 -412 -410 -785 -784 -973 -142
-72 -286 -126 -444 -167 -36 -9 -81 -20 -100 -25 -68 -17 -208 -43 -330 -59
-348 -48 -568 -53 -2095 -49 l-1390 3 -3 1730 c-1 952 0 1736 3 1743 7 18
3097 12 3245 -7z"/>
<path d="M6840 20979 c0 -5 107 -168 237 -362 130 -194 494 -737 808 -1207
315 -470 609 -909 654 -975 46 -66 329 -489 630 -940 302 -451 585 -874 631
-940 45 -66 328 -489 630 -940 301 -451 584 -874 630 -940 45 -66 319 -475
610 -910 290 -434 573 -857 629 -940 57 -82 340 -505 630 -940 291 -434 540
-808 555 -829 l26 -39 0 -3588 0 -3589 2655 0 2655 0 0 3590 0 3590 519 778
c286 427 583 872 662 987 78 116 496 741 930 1390 433 649 851 1275 930 1390
78 116 496 741 929 1390 434 649 843 1261 910 1360 210 308 1780 2664 1780
2670 0 3 -1314 5 -2920 5 l-2919 0 -21 -22 c-11 -12 -20 -26 -20 -31 0 -4 -13
-28 -30 -52 -16 -24 -30 -46 -30 -50 0 -4 -13 -26 -30 -50 -16 -24 -30 -47
-30 -50 0 -4 -8 -19 -19 -33 -10 -15 -27 -43 -38 -62 -11 -19 -183 -307 -383
-640 -200 -333 -372 -621 -383 -640 -11 -19 -28 -47 -38 -62 -11 -14 -19 -29
-19 -33 0 -3 -13 -26 -30 -50 -16 -24 -30 -46 -30 -50 0 -4 -13 -26 -30 -50
-16 -24 -30 -46 -30 -50 0 -4 -13 -26 -30 -50 -16 -24 -30 -46 -30 -48 0 -2
-76 -131 -170 -287 -93 -156 -170 -285 -170 -287 0 -2 -13 -24 -30 -48 -16
-24 -30 -46 -30 -50 0 -4 -13 -26 -30 -50 -16 -24 -30 -46 -30 -50 0 -4 -13
-26 -30 -50 -17 -24 -30 -47 -30 -50 0 -4 -8 -19 -19 -33 -10 -15 -27 -43 -38
-62 -11 -19 -170 -285 -353 -590 -183 -305 -342 -571 -353 -590 -11 -19 -28
-47 -38 -62 -11 -14 -19 -29 -19 -33 0 -3 -13 -26 -30 -50 -16 -24 -30 -46
-30 -50 0 -4 -13 -26 -30 -50 -16 -24 -30 -46 -30 -48 0 -2 -90 -154 -200
-337 -110 -183 -200 -335 -200 -337 0 -2 -13 -24 -30 -48 -17 -24 -30 -46 -30
-50 0 -4 -13 -26 -30 -50 -16 -24 -30 -46 -30 -50 0 -4 -13 -26 -30 -50 -16
-24 -30 -46 -30 -50 0 -4 -14 -26 -30 -50 -16 -24 -30 -46 -30 -48 0 -11 -137
-231 -146 -234 -8 -3 -458 732 -473 771 -2 6 -17 30 -32 53 -16 23 -29 44 -29
48 0 4 -13 26 -30 50 -16 24 -30 46 -30 48 0 2 -49 87 -110 187 -60 100 -110
185 -110 187 0 2 -13 24 -30 48 -16 24 -30 46 -30 50 0 4 -13 26 -30 50 -16
24 -30 47 -30 50 0 4 -8 19 -19 33 -10 15 -28 43 -38 62 -11 19 -116 195 -233
390 -117 195 -222 371 -233 390 -10 19 -28 47 -38 62 -11 14 -19 28 -19 31 0
2 -63 109 -140 237 -77 128 -140 235 -140 237 0 2 -13 24 -30 48 -16 24 -30
47 -30 50 0 4 -8 19 -19 33 -10 15 -28 43 -38 62 -11 19 -116 195 -233 390
-117 195 -222 371 -233 390 -10 19 -28 47 -38 62 -11 14 -19 29 -19 33 0 3
-14 26 -30 50 -16 24 -30 46 -30 48 0 2 -49 87 -110 187 -60 100 -110 185
-110 187 0 2 -13 24 -30 48 -16 24 -30 47 -30 50 0 4 -8 19 -19 33 -10 15 -28
43 -38 62 -11 19 -116 195 -233 390 -117 195 -222 371 -233 390 -10 19 -28 47
-38 62 -11 14 -19 28 -19 31 0 8 -81 141 -98 160 -14 16 -167 17 -2949 17
-2043 0 -2933 -3 -2933 -11z"/>
</g>
</svg>
