<?xml version="1.0" encoding="UTF-8"?><svg id="Layer_1" xmlns="http://www.w3.org/2000/svg" width="600" height="150" viewBox="0 0 600 150"><defs><style>.cls-1{fill:#fff;stroke-width:0px;}</style></defs><g id="Layer_2"><g id="Layer_1-2"><path class="cls-1" d="m104.48,70.03c-.67.5-1.35.67-1.86.67h-1.55c-.62,0-1.14-.18-1.24-.67l-5.07-24.16-30.74,24.16c-.67.5-1.35.67-1.81.67h-1.6c-.62,0-1.04-.18-1.24-.67l-9.68-29.07c0-.54.16-.94,1.04-.94h9.88c.67,0,1.24.13,1.35.54l6.83,23.31,29.49-23.26c.57-.45,1.14-.58,1.91-.58h1.76c.67,0,1.19.13,1.29.58l5.02,23.8,30.32-23.85c.52-.45.98-.54,1.4-.54h1.71c.36,0,.46.09.46.27s-.1.41-.46.63l-37.2,29.11h-.01Z"/><path class="cls-1" d="m131.92,70.71c-.36,0-.52-.13-.52-.32,0-.13,0-.22.1-.36l15-29.29c.21-.5.62-.72,1.14-.72h9.11c.36,0,.57.09.57.36,0,.04-.05.18-.1.36l-14.95,29.29c-.26.45-.67.67-1.24.67h-9.11Z"/><path class="cls-1" d="m149.87,70.71c-.36,0-.52-.13-.52-.32,0-.13,0-.22.1-.36l15-29.29c.21-.5.62-.72,1.14-.72h9.11c.36,0,.57.09.57.36,0,.04-.05.18-.1.36l-14.95,29.29c-.26.45-.67.67-1.24.67h-9.11Z"/><path class="cls-1" d="m220.4,70.71c-1.04,0-1.91-.18-2.43-.5l-34.88-21.73-10.97,21.55c-.26.45-.67.67-1.14.67h-3.62c-.36,0-.52-.13-.52-.32,0-.13,0-.22.1-.36l15.01-29.29c.21-.5.62-.72,1.14-.72h3.52c1.14,0,1.71.09,2.28.5l33.58,21.51,10.92-21.28c.21-.5.62-.72,1.19-.72h3.57c.36,0,.52.09.52.36,0,.04-.05.18-.05.36l-15,29.29c-.21.45-.62.67-1.19.67h-2.03Z"/><path class="cls-1" d="m244.62,70.71c-6.36,0-9.93-3.92-9.93-9.36,0-10.48,12.78-21.33,25.66-21.33h33.84c.31,0,.52.09.52.36,0,.04-.05.18-.1.36l-.83,1.62c-.21.45-.67.67-1.14.67h-27.79c-8.54,0-18.63,9.4-18.63,18.67,0,3.96,2.12,5.94,6,5.94h20.65l8.43-16.51c.21-.45.62-.72,1.14-.72h7.61c.36,0,.57.13.57.36,0,.09-.05.23-.1.36l-9.62,18.9c-.26.45-.67.67-1.24.67h-35.04,0Z"/><path class="cls-1" d="m339.94,70.71c-.67,0-.98-.18-1.24-.63l-12.37-23.8-33.22,21.37h33.37c.36,0,.57.13.57.36,0,.09-.05.23-.1.36l-.83,1.67c-.21.45-.62.67-1.19.67h-39.17c-.36,0-.62-.18-.62-.41s.26-.5.72-.85l45.27-28.75c.72-.45,1.29-.67,1.97-.67h1.71c.67,0,.98.18,1.29.67l15.52,29.11s.1.18.1.32c0,.32-.41.58-1.04.58h-10.76.02,0Z"/><path class="cls-1" d="m408.1,70.71c-.67,0-.98-.18-1.24-.63l-12.37-23.8-33.22,21.37h33.37c.36,0,.57.13.57.36,0,.09-.05.23-.1.36l-.83,1.67c-.21.45-.62.67-1.19.67h-39.17c-.36,0-.62-.18-.62-.41s.26-.5.72-.85l45.27-28.75c.72-.45,1.29-.67,1.97-.67h1.71c.67,0,.98.18,1.29.67l15.52,29.11s.1.18.1.32c0,.32-.41.58-1.04.58h-10.76.02Z"/><path class="cls-1" d="m469.47,70.71c-.98,0-1.45-.13-2.07-.54l-20.9-14.08c-.21-.14-.26-.27-.26-.45,0-.13.05-.32.16-.54l.47-.86c.21-.45.62-.67,1.14-.67h20.44c6.83,0,10.25-3.55,10.25-7.47,0-2.21-1.86-3.06-4.86-3.06h-25.09l-13.82,27c-.21.45-.62.67-1.14.67h-9.11c-.41,0-.52-.13-.52-.32,0-.13,0-.22.1-.36l14.75-28.84c.41-.77.98-1.17,1.86-1.17h41.81c4.29,0,7.09,1.48,7.09,4.95,0,6.57-7.61,11.56-15.52,11.56h-15.57l22.71,13.18c.16.09.26.27.26.41,0,.32-.47.58-1.04.58h-11.14,0Z"/><path class="cls-1" d="m486.04,70.71c-.57,0-.78-.18-.78-.5,0-.09.05-.31.1-.5l14.75-28.71c.31-.63.88-.99,1.66-.99h38.55c6.57,0,9.99,3.96,9.99,9.27,0,10.93-13.4,21.42-25.67,21.42h-38.6,0Zm23.7-27.67l-12.57,24.61h23.03c7.04,0,18.83-10.35,18.83-18.99,0-3.78-2.07-5.62-6.26-5.62h-23.03Z"/><path class="cls-1" d="m178.25,120.71c-.98,0-1.45-.13-2.07-.54l-20.9-14.08c-.21-.14-.26-.27-.26-.45,0-.13.05-.32.16-.54l.47-.86c.21-.45.62-.67,1.14-.67h20.44c6.83,0,10.25-3.55,10.25-7.47,0-2.21-1.86-3.06-4.86-3.06h-25.09l-13.82,27c-.21.45-.62.67-1.14.67h-9.11c-.41,0-.52-.13-.52-.32,0-.13,0-.22.1-.36l14.75-28.84c.41-.77.98-1.17,1.86-1.17h41.81c4.29,0,7.09,1.48,7.09,4.95,0,6.57-7.61,11.56-15.52,11.56h-15.57l22.71,13.18c.16.09.26.27.26.41,0,.32-.47.58-1.04.58h-11.14Z"/><path class="cls-1" d="m246.97,120.71c-.67,0-.98-.18-1.24-.63l-12.37-23.8-33.22,21.37h33.37c.36,0,.57.13.57.36,0,.09-.05.23-.1.36l-.83,1.67c-.21.45-.62.67-1.19.67h-39.17c-.36,0-.62-.18-.62-.41s.26-.5.72-.85l45.27-28.75c.72-.45,1.29-.67,1.97-.67h1.71c.67,0,.98.18,1.29.67l15.52,29.11s.1.18.1.32c0,.32-.41.58-1.04.58h-10.76.02Z"/><path class="cls-1" d="m273.32,120.71c-6.36,0-9.93-3.92-9.93-9.36,0-10.48,12.78-21.33,25.66-21.33h33.01c.31,0,.52.09.52.36,0,.04-.05.18-.1.36l-.83,1.62c-.26.45-.67.67-1.14.67h-26.96c-7.97,0-18.63,9.4-18.63,18.67,0,3.96,2.12,5.94,6,5.94h27.06c.31,0,.52.13.52.36,0,.09-.05.23-.1.36l-.83,1.67c-.21.45-.62.67-1.14.67h-33.12,0Z"/><path class="cls-1" d="m313.74,120.71c-.36,0-.52-.13-.52-.32,0-.13,0-.22.1-.36l15-29.29c.21-.5.62-.72,1.14-.72h9.11c.36,0,.57.09.57.36,0,.04-.05.18-.1.36l-14.95,29.29c-.26.45-.67.67-1.24.67h-9.11Z"/><path class="cls-1" d="m384.26,120.71c-1.04,0-1.91-.18-2.43-.5l-34.88-21.73-10.97,21.55c-.26.45-.67.67-1.14.67h-3.62c-.36,0-.52-.13-.52-.32,0-.13,0-.22.1-.36l15.01-29.29c.21-.5.62-.72,1.14-.72h3.52c1.14,0,1.71.09,2.28.5l33.58,21.51,10.92-21.28c.21-.5.62-.72,1.19-.72h3.57c.36,0,.52.09.52.36,0,.04-.05.18-.05.36l-15,29.29c-.21.45-.62.67-1.19.67h-2.03Z"/><path class="cls-1" d="m408.49,120.71c-6.36,0-9.93-3.92-9.93-9.36,0-10.48,12.78-21.33,25.66-21.33h33.84c.31,0,.52.09.52.36,0,.04-.05.18-.1.36l-.83,1.62c-.21.45-.67.67-1.14.67h-27.79c-8.54,0-18.63,9.4-18.63,18.67,0,3.96,2.12,5.94,6,5.94h20.65l8.43-16.51c.21-.45.62-.72,1.14-.72h7.61c.36,0,.57.13.57.36,0,.09-.05.23-.1.36l-9.62,18.9c-.26.45-.67.67-1.24.67h-35.04Z"/><path class="cls-1" d="m160.15,34.56l-.75,1.35c-.09.13-.21.2-.37.2h-2.82c-.12,0-.17-.04-.17-.11,0-.02.01-.06.04-.09l.75-1.35h-7.37c-.1,0-.15-.04-.14-.1,0-.02.02-.06.03-.1l.2-.38c.08-.12.21-.23.37-.3l9.01-4.18c.27-.12.53-.2.76-.2h3.18c.12,0,.16.03.16.09,0,.04-.02.08-.03.12l-2.37,4.19h.85c.12,0,.17.04.17.11,0,.03,0,.06-.03.11l-.25.44c-.08.13-.21.2-.37.2h-.86,0Zm-.91-4.24l-7.3,3.38h5.39l1.91-3.38h0Z"/><path class="cls-1" d="m169.31,36.1c-1.53,0-2.29-.91-2.22-2.13.12-2.32,3.07-4.68,6.07-4.68h4.32c1.54,0,2.3.89,2.24,2.1-.12,2.35-3.16,4.71-6.07,4.71h-4.34Zm3.21-.93c1.39,0,3.96-1.89,4.06-3.88.04-.83-.4-1.08-1.23-1.08h-1.29c-1.26,0-3.82,1.92-3.93,3.91-.04.8.37,1.05,1.12,1.05h1.27Z"/></g></g></svg>